<?xml version="1.0" standalone="no"?>
<!DOCTYPE svg PUBLIC "-//W3C//DTD SVG 20010904//EN"
 "http://www.w3.org/TR/2001/REC-SVG-20010904/DTD/svg10.dtd">
<svg version="1.0" xmlns="http://www.w3.org/2000/svg"
 width="512.000000pt" height="512.000000pt" viewBox="0 0 512.000000 512.000000"
 preserveAspectRatio="xMidYMid meet">
<metadata>
Created by potrace 1.11, written by Peter Selinger 2001-2013
</metadata>
<g transform="translate(0.000000,512.000000) scale(0.100000,-0.100000)"
fill="#000000" stroke="none">
<path d="M2424 5028 c24 -45 55 -103 70 -128 14 -25 38 -70 53 -100 15 -30 31
-56 36 -58 4 -2 7 -12 7 -23 0 -10 5 -19 10 -19 6 0 10 -9 10 -20 0 -11 5 -20
10 -20 6 0 10 -4 10 -9 0 -5 34 -80 76 -167 95 -197 115 -241 154 -327 38 -84
172 -418 189 -469 7 -21 17 -38 22 -38 6 0 8 3 6 8 -3 4 -8 36 -11 72 -4 36
-9 72 -11 80 -3 8 -7 29 -9 45 -3 25 -18 98 -40 195 -33 142 -116 363 -194
515 -25 50 -50 95 -54 100 -5 6 -35 51 -68 102 -32 51 -72 107 -87 125 -55 65
-169 180 -196 200 -27 19 -26 17 17 -64z"/>
<path d="M4481 4968 c-8 -13 -19 -32 -25 -43 -29 -54 -100 -147 -157 -206 -70
-73 -208 -181 -221 -173 -4 3 -8 1 -8 -4 0 -14 -233 -103 -306 -118 -18 -3
-197 -74 -214 -84 -8 -5 -35 -19 -60 -31 -25 -13 -51 -28 -58 -33 -88 -74
-112 -97 -137 -129 -17 -21 -35 -44 -42 -51 -32 -36 -108 -211 -98 -226 3 -5
1 -11 -4 -14 -9 -6 -7 -245 2 -296 13 -66 75 -218 98 -237 16 -13 36 -12 57 0
6 5 12 6 12 3 0 -3 33 7 73 20 39 14 77 27 82 29 6 2 21 6 34 10 38 13 200 93
266 133 244 146 487 388 618 615 15 26 30 47 33 47 13 0 -57 -177 -76 -190 -4
-3 -13 -16 -19 -28 -40 -76 -283 -320 -420 -422 -19 -14 -40 -31 -47 -37 -7
-7 -15 -13 -19 -13 -3 0 -16 -9 -28 -21 -24 -22 -220 -153 -359 -240 -49 -30
-88 -56 -88 -59 0 -6 95 -82 146 -118 80 -54 182 -97 309 -128 41 -10 180 -3
238 12 136 35 238 95 341 201 91 95 147 172 204 283 46 89 106 257 116 325 2
17 5 30 6 30 1 0 3 11 5 25 15 112 20 183 20 300 0 140 -5 195 -30 340 -7 42
-52 207 -64 235 -5 11 -19 45 -31 75 -31 75 -115 233 -126 237 -5 2 -16 -7
-23 -19z"/>
<path d="M1958 3684 c-2 -1 -26 -5 -53 -8 -61 -7 -149 -24 -190 -36 -16 -5
-41 -11 -55 -14 -14 -3 -48 -14 -77 -24 -28 -11 -54 -17 -57 -14 -3 3 -6 0 -6
-6 0 -7 -3 -11 -7 -10 -23 4 -206 -86 -303 -149 -98 -65 -220 -161 -220 -174
0 -5 -5 -9 -10 -9 -6 0 -30 -20 -53 -44 -175 -182 -287 -334 -366 -498 -18
-36 -35 -69 -38 -72 -4 -4 -8 -13 -9 -20 -1 -7 -9 -29 -18 -47 -20 -43 -74
-211 -81 -252 -3 -17 -7 -33 -9 -36 -4 -6 -14 -61 -21 -106 -1 -11 -3 -20 -5
-20 -6 0 -13 -141 -14 -280 -1 -139 5 -253 19 -345 16 -117 76 -323 114 -399
12 -22 19 -41 16 -41 -7 0 84 -171 101 -191 8 -8 14 -19 14 -23 0 -11 107
-164 159 -226 68 -81 228 -239 296 -291 178 -137 382 -235 596 -288 170 -42
209 -46 484 -46 216 0 298 4 375 20 14 3 34 7 45 9 64 13 183 50 232 72 17 8
35 14 40 14 19 0 201 95 283 148 143 92 308 241 405 366 17 21 36 45 43 52 6
7 12 17 12 23 0 5 6 14 13 18 51 32 246 412 271 528 1 6 10 35 19 66 9 30 19
73 22 95 4 21 8 46 11 54 2 8 6 38 10 65 3 28 9 77 13 111 7 63 6 332 -2 394
-3 19 -8 58 -11 86 -4 28 -9 61 -12 75 -2 13 -6 36 -9 51 -3 24 -28 119 -40
156 -3 7 -5 16 -6 20 -4 16 -38 113 -43 121 -3 5 -38 -9 -79 -30 -71 -37 -196
-87 -289 -115 -54 -17 -57 -26 -33 -97 8 -24 16 -52 18 -63 1 -10 5 -23 9 -29
8 -14 37 -160 41 -211 2 -23 6 -45 8 -50 7 -14 3 -209 -5 -294 -4 -41 -16
-111 -27 -155 -11 -44 -21 -89 -24 -99 -17 -72 -90 -252 -113 -278 -8 -10 -12
-18 -8 -18 4 0 2 -6 -4 -12 -21 -26 -60 -89 -60 -98 0 -6 -4 -10 -8 -10 -4 0
-16 -14 -26 -31 -22 -37 -193 -211 -256 -260 -92 -72 -230 -151 -320 -184 -58
-21 -168 -54 -200 -60 -14 -2 -36 -7 -50 -9 -31 -6 -78 -13 -153 -21 -75 -9
-70 0 44 90 81 63 359 328 359 342 0 3 8 13 18 22 47 42 229 299 288 406 80
146 158 316 184 400 7 22 16 45 20 50 6 8 14 36 25 85 1 3 9 31 18 62 16 53
34 135 41 183 2 11 6 34 9 50 3 17 9 55 13 85 3 30 9 80 13 110 8 67 6 330 -4
420 -4 36 -8 79 -9 95 -2 17 -6 50 -10 75 -4 25 -10 59 -12 75 -3 17 -16 80
-30 140 -13 61 -27 121 -30 134 -3 13 -9 32 -14 42 -6 10 -10 29 -10 43 0 14
-4 27 -9 30 -5 3 -12 23 -17 43 -4 21 -8 40 -9 43 -6 28 -38 111 -43 114 -4 2
-7 -122 -7 -277 1 -155 -2 -294 -6 -309 -4 -15 -3 -30 2 -34 5 -3 7 -10 3 -15
-3 -6 -7 -49 -9 -97 -3 -89 -13 -218 -20 -262 -2 -14 -7 -54 -10 -90 -2 -36
-7 -78 -11 -95 -3 -16 -7 -43 -9 -60 -2 -16 -6 -39 -8 -50 -3 -11 -8 -40 -11
-65 -3 -25 -15 -90 -27 -145 -11 -55 -22 -109 -23 -121 -21 -126 -138 -479
-215 -649 -18 -38 -32 -72 -33 -75 0 -3 -9 -17 -20 -32 -11 -16 -16 -28 -11
-28 4 0 3 -4 -3 -8 -5 -4 -25 -33 -42 -65 -37 -66 -131 -200 -144 -205 -4 -2
-8 -8 -8 -13 0 -5 -8 -17 -17 -28 -189 -200 -277 -269 -461 -361 -60 -29 -89
-39 -105 -34 -12 4 -29 9 -37 10 -8 1 -26 5 -40 9 -14 3 -29 7 -35 9 -23 5
-121 39 -130 45 -5 3 -12 6 -15 6 -7 1 -130 63 -155 78 -93 56 -199 139 -267
209 -75 76 -208 252 -208 275 0 5 -6 15 -12 21 -7 7 -13 16 -13 20 -1 4 -9 23
-20 42 -11 19 -20 37 -20 40 -1 3 -9 23 -19 45 -48 111 -91 273 -103 393 -3
31 -5 111 -5 177 0 205 19 326 73 477 16 45 31 88 32 93 1 6 4 12 7 15 3 3 18
32 35 65 41 85 136 223 193 283 6 7 12 18 12 23 0 5 7 9 16 9 8 0 13 3 11 8
-2 4 18 28 45 54 26 26 48 46 48 44 0 -2 19 15 43 36 55 52 241 174 277 183 3
1 28 12 55 24 28 12 62 25 78 28 15 3 27 10 27 15 0 5 4 7 9 3 5 -3 12 -1 16
5 4 6 10 8 14 6 4 -3 32 1 62 9 30 7 74 16 99 20 65 9 305 9 370 1 61 -8 229
-48 274 -66 34 -12 45 -5 52 36 3 16 14 63 25 104 11 41 21 82 24 90 2 8 19
53 38 100 38 93 36 99 -23 113 -14 3 -34 8 -45 11 -33 10 -207 46 -250 53 -42
6 -472 13 -477 7z"/>
</g>
</svg>
